<svg width="188" height="32" viewBox="0 0 188 32" fill="none" xmlns="http://www.w3.org/2000/svg">
<path d="M45.8148 20.9936V9.77441H53.0274C55.0859 9.77441 56.6656 10.2532 57.7826 11.2107C58.8837 12.1683 59.4422 13.5407 59.4422 15.3122C59.4422 16.3655 59.2188 17.3071 58.788 18.1369C58.3571 18.9828 57.7507 19.6371 56.9688 20.1159C56.4742 20.4191 55.8678 20.6425 55.1497 20.7861C54.4316 20.9298 53.4902 20.9936 52.3572 20.9936H45.8148ZM48.4317 18.887H51.8147C53.6178 18.887 54.8784 18.5998 55.6284 18.0412C56.3784 17.4826 56.7614 16.557 56.7614 15.2643C56.7614 14.1153 56.4422 13.2535 55.8199 12.663C55.1976 12.0725 54.2721 11.7693 53.0593 11.7693H48.4317V18.887ZM65.7932 20.9936V9.77441H77.2823L76.0536 11.6895H68.4101V14.1951H73.5803V16.1101H68.3942V18.887H76.1494L77.3781 20.9936H65.7932ZM92.8087 11.7852H85.7715V18.887H92.8087V17.2752L95.4256 17.2592V18.3444C95.4256 19.3658 95.2342 20.068 94.8512 20.435C94.4682 20.8021 93.7342 20.9936 92.6491 20.9936H83.1705V9.77441H92.6491C93.7342 9.77441 94.4682 9.96592 94.8512 10.333C95.2342 10.716 95.4256 11.4022 95.4256 12.4236V13.3173H92.8087V11.7852ZM101.777 20.9936V9.77441H113.266L112.037 11.6895H104.378V14.1951H109.564V16.1101H104.378V18.887H112.133L113.362 20.9936H101.777ZM119.138 20.9936V9.77441H120.925L128.824 16.3815C129.095 16.6049 129.335 16.8123 129.542 17.0039L129.702 17.1634C129.845 17.3071 130.069 17.1954 130.069 17.0039C130.053 16.6847 130.037 16.4293 130.021 16.2697C130.005 16.0144 130.005 15.8069 130.005 15.6633V9.77441H132.351V20.9936H130.547L122.314 14.0674C122.122 13.8918 121.946 13.7322 121.787 13.5886C121.643 13.4609 121.42 13.5567 121.436 13.7482C121.452 13.8759 121.452 14.0036 121.468 14.1312C121.484 14.4344 121.5 14.7058 121.5 14.9292V20.9936H119.138ZM146.026 11.7852V20.9936H143.409V11.7852H138.255V9.77441H151.18V11.7852H146.026ZM157.132 20.9936V9.77441H168.621L167.393 11.6895H159.749V14.1951H164.935V16.1101H159.749V18.887H167.504L168.733 20.9936H157.132ZM174.509 20.9936V9.77441H184.1C184.993 9.77441 185.632 9.94996 186.031 10.2851C186.429 10.6362 186.637 11.1788 186.637 11.9448V14.5781C186.637 15.3281 186.429 15.8867 186.031 16.2378C185.632 16.5889 184.977 16.7645 184.1 16.7645H182.632L187.818 20.9936H184.068L179.552 16.7645H177.079V20.9936H174.509ZM182.951 11.7214H177.079V14.8494H182.951C183.398 14.8494 183.717 14.7855 183.876 14.6579C184.036 14.5302 184.132 14.2908 184.132 13.9557V12.6151C184.132 12.2959 184.052 12.0566 183.876 11.9289C183.701 11.7853 183.398 11.7214 182.951 11.7214Z" fill="white"/>
<path d="M15.5165 23.0054C19.1069 23.0054 22.059 20.1647 22.2345 16.6058L25.027 16.6218C24.8515 21.7127 20.6547 25.7823 15.5165 25.7823C10.9687 25.7823 7.17091 22.5107 6.22943 18.2975H9.10173C9.96341 20.819 12.5166 23.0054 15.5165 23.0054Z" fill="white"/>
<path d="M21.7877 13.8928C20.8303 11.3553 18.3729 9.56788 15.5006 9.56788C12.5644 9.56788 10.0592 11.5468 9.1496 14.18C8.19217 14.1481 7.25069 14.0045 6.30922 13.8928C7.39431 9.75939 11.0964 6.79102 15.5006 6.79102C19.9207 6.79102 23.6387 9.80727 24.7079 13.8928H21.7877Z" fill="white"/>
<path d="M30.9951 14.9144C30.9154 13.893 30.7239 12.8716 30.4526 11.8822C30.293 11.3396 30.1015 10.8129 29.8941 10.3022C29.4154 9.12128 28.7771 7.98819 28.0111 6.95085C27.2452 6.02523 26.5112 5.11556 25.5856 4.33357C24.6442 3.51966 23.607 2.83342 22.49 2.27486C20.4315 1.23752 18.1496 0.662994 15.8518 0.615117C11.6072 0.519363 7.41042 2.24294 4.44238 5.25919C2.73496 6.99873 1.44243 9.13724 0.708403 11.4832L0.405213 12.4567L4.88918 15.6326H14.2561L16.5698 12.9195H5.87853L3.70835 11.3715C5.09663 7.90839 8.01679 5.19536 11.5593 4.03035C15.2933 2.8015 19.49 3.40795 22.7293 5.64221C24.7718 7.0466 26.3676 9.05744 27.309 11.3396C27.3569 11.4673 27.4048 11.579 27.4526 11.7066C27.708 12.3929 27.9154 13.111 28.0431 13.8292C28.075 14.0047 28.0909 14.1962 28.1228 14.3878L31.0111 16.4305C31.027 15.9198 31.043 15.4251 30.9951 14.9144ZM16.7454 16.6061L14.4316 19.3191H25.1229L27.2931 20.8671C25.9048 24.3302 22.9846 27.0433 19.4421 28.2083C15.7082 29.4371 11.5114 28.8307 8.27211 26.5964C6.24554 25.192 4.64983 23.2131 3.70835 20.931C3.37325 20.133 3.13389 19.2872 2.97432 18.4254C2.92645 18.1381 2.87858 17.8668 2.84666 17.5796L0.0222414 15.5687C-0.00967299 16.1592 -0.00967202 16.7337 0.0381995 17.3242C0.117985 18.3296 0.293513 19.3191 0.564785 20.2926L0.612659 20.4362C0.644574 20.516 0.660531 20.5958 0.692445 20.6916V20.7075C0.724359 20.7873 0.740317 20.8831 0.772231 20.9629C0.788188 21.0107 0.804143 21.0427 0.820101 21.0905C0.915844 21.3778 1.02754 21.6491 1.13924 21.9204C1.61796 23.1014 2.25625 24.2345 3.02219 25.2718C3.78814 26.1974 4.52217 27.1071 5.44768 27.8891C6.38916 28.703 7.42637 29.3892 8.54338 29.9478C10.6019 30.9851 12.8837 31.5597 15.1816 31.6075C19.4262 31.7033 23.6229 29.9797 26.591 26.9635C28.2984 25.2239 29.5909 23.0854 30.3249 20.7394L30.6281 19.7659L26.1441 16.5901H16.7454V16.6061Z" fill="white"/>
</svg>
